<svg width="188" height="188" viewBox="0 0 188 188" fill="none" xmlns="http://www.w3.org/2000/svg">
<mask id="mask0_7_341" style="mask-type:luminance" maskUnits="userSpaceOnUse" x="10" y="65" width="169" height="58">
<path d="M178.254 65.8H10.4445V122.2H178.254V65.8Z" fill="white"/>
</mask>
<g mask="url(#mask0_7_341)">
<path d="M101.393 93.9658C101.393 97.9554 99.5925 102.697 91.0321 102.697H79.5197V97.4766H89.9949C94.9988 97.4766 95.5802 95.5047 95.5802 94.0571C95.5802 92.6094 94.6227 91.3557 92.6622 90.4095L85.0708 86.819C81.4233 85.0864 79.5653 82.4533 79.5653 78.9768C79.5653 75.1697 81.3548 70.6331 89.8239 70.6331H99.9231V75.808H90.884C89.8743 75.7892 88.8645 75.8463 87.8634 75.9789C87.237 76.1274 86.6574 76.429 86.1764 76.8567C85.9015 77.1317 85.6922 77.4651 85.564 77.8322C85.4357 78.1992 85.3917 78.5905 85.4355 78.9768C85.3972 79.6162 85.5737 80.2502 85.937 80.7778C86.5291 81.4204 87.2629 81.916 88.0799 82.2254L96.0589 85.9071C97.6686 86.5392 99.0444 87.652 99.999 89.094C100.954 90.536 101.44 92.2372 101.393 93.9658Z" fill="white"/>
<path d="M132.318 70.5874H126.55V102.697H132.318V70.5874Z" fill="white"/>
<path d="M178.254 81.9633V102.697H172.474V82.0089C172.549 80.2945 172.155 78.5924 171.335 77.0847C170.662 75.9449 169.363 75.4547 167.357 75.4547C166.661 75.407 165.964 75.5223 165.321 75.7915C164.678 76.0606 164.106 76.4761 163.652 77.0049C162.671 78.379 162.196 80.0505 162.308 81.7353V102.697H156.562V81.7809C156.673 80.084 156.184 78.4022 155.184 77.0277C154.72 76.49 154.138 76.0678 153.483 75.7947C152.828 75.5217 152.118 75.4052 151.41 75.4547C149.359 75.4547 146.634 76.093 146.634 81.6898V102.697H140.866V80.7095C140.81 79.3005 141.036 77.8944 141.529 76.5733C142.021 75.2522 142.773 74.0428 143.739 73.0155C144.712 72.0247 145.88 71.2466 147.169 70.7305C148.458 70.2146 149.84 69.9717 151.228 70.0177C152.821 69.9775 154.398 70.3474 155.807 71.0919C157.216 71.8364 158.411 72.9305 159.276 74.2693C160.048 73.0811 161.076 72.0804 162.285 71.3398C163.966 70.4103 165.869 69.9533 167.79 70.0177C170.993 70.0177 173.409 70.8726 174.949 72.5481C176.19 73.7594 177.135 75.242 177.707 76.8796C178.124 78.5406 178.308 80.2516 178.254 81.9633Z" fill="white"/>
<path d="M122.093 70.5989V75.8194H116.12V102.709H110.341V75.8194H104.266V70.5989H122.093Z" fill="white"/>
<path d="M100.345 112.705V119.465H98.8857V112.626C98.8857 110.642 98.1106 109.627 96.606 109.605C95.1014 109.582 94.2579 110.642 94.2579 112.626V119.465H92.7532V112.74C92.6818 111.574 93.0385 110.423 93.7563 109.502C94.1026 109.113 94.533 108.808 95.015 108.61C95.497 108.412 96.0179 108.328 96.5376 108.362H96.6516C97.1563 108.341 97.6593 108.433 98.1245 108.631C98.5896 108.828 99.0053 109.126 99.3417 109.502C100.052 110.414 100.408 111.551 100.345 112.705Z" fill="white"/>
<path d="M125.068 118.177V119.465H123.05C122.55 119.51 122.044 119.454 121.565 119.301C121.086 119.148 120.641 118.902 120.258 118.576C119.61 117.774 119.3 116.752 119.392 115.726V108.522H120.839V115.361C120.828 115.841 120.878 116.319 120.987 116.786C121.084 117.097 121.26 117.376 121.5 117.595C121.728 117.796 121.996 117.943 122.287 118.029C122.698 118.119 123.12 118.157 123.541 118.143L125.068 118.177Z" fill="white"/>
<path d="M133.765 119.465H132.306V115.178C131.477 115.082 130.715 114.675 130.174 114.039C129.686 113.268 129.455 112.363 129.513 111.452V108.522H131.03V111.417C131.03 113.058 131.737 113.879 133.15 113.879C134.517 113.879 135.19 113.093 135.19 111.508V108.522H136.649V111.634C136.703 112.051 136.672 112.475 136.558 112.881C136.443 113.286 136.248 113.664 135.985 113.992C135.72 114.32 135.392 114.591 135.021 114.789C134.65 114.987 134.241 115.108 133.823 115.145L133.765 119.465Z" fill="white"/>
<path d="M144.833 119.465H143.374V109.822H141.197V108.522H146.988V109.787H144.845L144.833 119.465Z" fill="white"/>
<path d="M153.736 119.465H152.277V108.522H153.736V119.465Z" fill="white"/>
<path d="M165.978 118.143V119.465H165.533C164.673 119.491 163.813 119.422 162.969 119.259C162.329 119.075 161.731 118.765 161.213 118.347C160.576 117.854 160.064 117.217 159.72 116.489C159.353 115.713 159.165 114.864 159.172 114.004C159.158 113.283 159.292 112.565 159.569 111.898C159.846 111.23 160.258 110.629 160.78 110.13C161.311 109.612 161.941 109.205 162.633 108.935C163.324 108.665 164.061 108.536 164.804 108.557H165.943V109.856H165.225C164.035 109.796 162.869 110.206 161.977 110.995C161.56 111.378 161.231 111.846 161.013 112.367C160.794 112.888 160.691 113.451 160.712 114.016C160.711 114.743 160.899 115.458 161.259 116.09C161.542 116.663 161.976 117.146 162.512 117.493C162.923 117.75 163.373 117.935 163.846 118.04C164.453 118.131 165.067 118.169 165.681 118.154L165.978 118.143Z" fill="white"/>
<path d="M171.005 119.465V118.21H174.424C175.963 118.21 176.703 117.686 176.703 116.66C176.682 116.304 176.555 115.963 176.338 115.681C176.121 115.398 175.823 115.188 175.484 115.076L172.748 113.777C172.227 113.59 171.775 113.246 171.455 112.794C171.134 112.341 170.961 111.801 170.959 111.246C170.959 109.457 172.098 108.557 174.378 108.557H177.696V109.821H174.777C174.398 109.797 174.017 109.797 173.638 109.821C173.361 109.885 173.106 110.019 172.896 110.209C172.761 110.333 172.655 110.488 172.588 110.66C172.52 110.831 172.493 111.016 172.509 111.2C172.495 111.502 172.584 111.799 172.759 112.044C173.003 112.309 173.303 112.516 173.638 112.648L176.51 113.97C177.038 114.169 177.49 114.528 177.804 114.996C178.12 115.463 178.28 116.017 178.266 116.581C178.266 118.473 177.125 119.407 174.845 119.407L171.005 119.465Z" fill="white"/>
<path d="M87.111 112.705V119.465H85.6634V112.626C85.6634 110.642 84.8884 109.627 83.3153 109.605C81.7424 109.582 81.0356 110.642 81.0356 112.626V119.465H79.5196V112.74C79.4513 111.573 79.8121 110.421 80.5341 109.502C80.8803 109.113 81.3107 108.808 81.7927 108.61C82.2747 108.412 82.7956 108.328 83.3153 108.362H83.4294C83.9322 108.343 84.433 108.436 84.896 108.633C85.3591 108.83 85.7729 109.127 86.108 109.502C86.818 110.414 87.1742 111.551 87.111 112.705Z" fill="white"/>
<path d="M86.222 115.658H80.6481V116.911H86.222V115.658Z" fill="white"/>
<path d="M113.693 112.705V119.465H112.234V112.626C112.234 110.642 111.458 109.627 109.896 109.605C108.335 109.582 107.549 110.642 107.549 112.626V119.465H106.101V112.74C106.03 111.574 106.386 110.423 107.105 109.502C107.45 109.113 107.881 108.808 108.363 108.61C108.845 108.412 109.366 108.328 109.885 108.362H110C110.504 108.341 111.007 108.433 111.473 108.631C111.937 108.828 112.353 109.126 112.689 109.502C113.4 110.414 113.756 111.551 113.693 112.705Z" fill="white"/>
<path d="M112.803 115.658H107.23V116.911H112.803V115.658Z" fill="white"/>
<path fill-rule="evenodd" clip-rule="evenodd" d="M38.0403 110.346C32.8603 110.344 27.8907 108.296 24.2139 104.646C24.2709 104.088 24.3393 103.507 24.4077 102.959C24.5558 101.592 24.7268 100.167 24.8066 98.8217L25.6273 98.5938L26.3682 98.3886C28.7099 97.666 31.135 97.2484 33.5835 97.1461C34.6293 97.1281 35.6703 97.2901 36.6611 97.6249C39.9324 98.8446 42.3604 103.13 43.9789 105.969C44.2297 106.402 44.4691 106.846 44.7199 107.291C44.9706 107.736 45.2898 108.316 45.5861 108.829C43.1958 109.829 40.6311 110.344 38.0403 110.346Z" fill="white"/>
<path fill-rule="evenodd" clip-rule="evenodd" d="M37.1969 70.1887C37.1969 70.1887 37.1969 70.1887 37.0487 70.1887C35.2939 70.2554 33.5566 70.5623 31.8851 71.1006H31.7142C26.8992 72.6797 22.839 75.9847 20.3156 80.379C19.961 78.5067 20.1909 76.5708 20.9738 74.8335C21.7568 73.0963 23.0551 71.6419 24.6926 70.6674L25.4449 70.2343C29.068 68.3256 33.0368 67.1628 37.1171 66.8147C36.8437 67.3379 36.7078 67.9219 36.7216 68.512C36.7356 69.1021 36.8991 69.679 37.1969 70.1887Z" fill="white"/>
<path fill-rule="evenodd" clip-rule="evenodd" d="M63.7783 102.367C63.0921 106.898 60.7881 111.029 57.2925 113.993C56.2547 114.82 54.9911 115.312 53.6677 115.406C50.8067 115.406 48.6295 112.237 46.8286 109.149C50.128 107.582 52.9495 105.163 55.0013 102.141C57.0532 99.1192 58.2613 95.6044 58.5007 91.9597C62.5586 93.8404 64.3595 97.2942 63.7783 102.367Z" fill="white"/>
<path d="M63.2197 88.3009C62.9005 88.0957 62.8094 87.4118 62.7523 87.161C62.485 85.9867 62.1032 84.8414 61.6124 83.7415C61.0918 82.5617 60.2654 81.5425 59.2188 80.7892C58.5463 80.2991 58.2613 80.4244 57.9535 81.154C57.4065 82.4649 56.8137 83.7301 56.164 85.0067C56.0158 85.3144 55.822 85.5424 55.4573 85.3942C55.0925 85.2461 55.1381 84.9041 55.2521 84.6077C55.3163 84.4243 55.3925 84.2454 55.4801 84.072C56.0158 82.9321 56.5401 81.7923 57.11 80.6524C57.3608 80.1281 57.0189 79.8089 56.3122 79.6607C55.0811 79.4214 54.7962 79.6607 54.5568 80.4587C54.2604 81.4389 53.8272 82.3737 53.4169 83.3311C53.2802 83.6617 53.0863 83.9694 52.6761 83.8327C52.2657 83.6958 52.3341 83.3083 52.4594 82.9892C52.7672 82.1571 53.0978 81.3363 53.4284 80.5042C53.7588 79.6722 53.7361 79.4442 52.7216 79.4898C50.6471 79.5696 48.5725 79.7405 46.4866 79.6836C45.1575 79.6636 43.8316 79.5454 42.5199 79.3302L42.121 79.2048L41.6993 79.125L41.3458 79.0339H41.1863C41.5195 78.5039 41.737 77.9096 41.8246 77.2898H42.121H42.4401H42.7935H43.3292C44.3909 77.334 45.4545 77.292 46.5095 77.1645C46.6234 77.1645 48.8575 76.9821 49.4845 76.9365C51.3081 76.7656 53.1436 76.7656 54.9672 76.9365C57.3951 77.21 59.6748 77.7914 61.3275 79.7862C63.0438 82.2693 63.7227 85.3245 63.2197 88.3009Z" fill="white"/>
<path d="M64.5078 102.788C66.3886 100.623 66.7875 94.8095 64.7243 92.2904C63.9897 91.3752 63.0933 90.6025 62.0799 90.0107C61.9496 89.957 61.831 89.878 61.7312 89.7785C61.6314 89.6789 61.5522 89.5606 61.4982 89.4303C61.4442 89.3 61.4164 89.1605 61.4165 89.0195C61.4166 88.8784 61.4445 88.7389 61.4986 88.6086C61.7037 88.0616 61.8405 87.4688 61.9887 86.933C62.0799 86.5911 62.1027 86.2264 61.6695 86.1238C61.2364 86.0212 61.1224 86.3289 61.0312 86.6253C60.8488 87.2408 60.6551 87.8563 60.4955 88.4719C60.4043 88.8594 59.88 88.9392 59.1618 88.4719C58.4438 88.0045 58.1816 88.0843 58.8199 86.4544C59.1505 85.5995 59.5152 84.7674 59.8116 83.9011C59.9598 83.4794 60.4613 82.8638 59.8116 82.613C59.1618 82.3622 59.082 83.1488 58.9111 83.5705C58.4666 84.5964 58.0334 85.6222 57.6801 86.6709C57.4521 87.3206 57.1899 87.4574 56.5402 87.161C53.939 86.1857 51.6749 84.4797 50.0202 82.2483C49.9177 82.1001 49.5757 81.4732 49.2338 81.496C49.4615 83.1935 50.1964 84.7826 51.3425 86.0554C53.162 88.0476 55.3793 89.6357 57.8511 90.7174C66.058 93.8633 64.5876 101.706 64.5078 102.788Z" fill="white"/>
<path d="M50.3736 72.5938C50.243 72.4765 50.0802 72.4009 49.9063 72.3771C49.7905 72.3653 49.6786 72.3287 49.5782 72.2697C49.478 72.2107 49.3916 72.1307 49.325 72.0352L48.8462 71.3513C48.7649 71.239 48.7139 71.1077 48.6979 70.97C48.6819 70.8322 48.7015 70.6928 48.755 70.5648C48.8625 70.321 48.8971 70.0515 48.8546 69.7885C48.8122 69.5255 48.6943 69.2805 48.5156 69.083C48.3884 68.9397 48.2322 68.8249 48.0573 68.7462C47.8825 68.6677 47.6929 68.6271 47.5012 68.6271C47.2477 68.6168 46.997 68.6844 46.7831 68.8208C46.673 68.881 46.5731 68.9578 46.4867 69.0488C46.3881 69.1506 46.2653 69.2259 46.1298 69.2677C45.9943 69.3096 45.8505 69.3166 45.7116 69.2882L43.5345 68.8208C43.3674 68.7868 43.215 68.7015 43.0986 68.5769C42.9822 68.4523 42.9074 68.2945 42.8848 68.1255C42.817 67.7132 42.6531 67.3227 42.4061 66.9856C42.1946 66.686 41.9237 66.433 41.6104 66.2423C41.2971 66.0516 40.9479 65.9273 40.5845 65.877C40.2212 65.8268 39.8513 65.8518 39.4981 65.9503C39.1448 66.0489 38.8155 66.2189 38.5305 66.4499C38.4377 66.5276 38.3501 66.6114 38.2684 66.7007C37.8575 67.1334 37.6028 67.6909 37.5448 68.2849C37.4868 68.8788 37.6288 69.475 37.9483 69.9791C38.2676 70.4831 38.7463 70.8661 39.3081 71.0672C39.87 71.2683 40.4829 71.276 41.0496 71.0891C41.2144 71.0308 41.3934 71.0257 41.5612 71.0749C41.7289 71.124 41.8769 71.2247 41.9843 71.3627L42.4174 71.9212C42.5106 72.0437 42.5674 72.1898 42.5815 72.3429C42.5956 72.4961 42.5665 72.6502 42.4972 72.7875C42.3879 73.0166 42.3221 73.2639 42.3035 73.517C42.2979 73.6722 42.2492 73.8229 42.1626 73.9517C42.0759 74.0807 41.955 74.1828 41.8133 74.2465L41.2548 74.4973C41.0828 74.5689 40.8924 74.5831 40.7118 74.538C40.5311 74.4928 40.3697 74.3906 40.2517 74.2465C39.9625 73.8722 39.6022 73.5584 39.1917 73.3232C38.4455 72.8885 37.5738 72.7203 36.7196 72.8463C35.8652 72.9724 35.0792 73.385 34.4903 74.0166C33.9015 74.6483 33.5449 75.4613 33.479 76.3223C33.4132 77.1833 33.6419 78.0411 34.1278 78.7549C34.6137 79.4688 35.3278 79.9963 36.153 80.2508C36.9782 80.5052 37.8653 80.4717 38.6689 80.1555C39.4724 79.8394 40.1446 79.2594 40.5752 78.5108C41.0058 77.7623 41.169 76.8897 41.0382 76.0361C41.0069 75.8513 41.0381 75.6613 41.1269 75.4962C41.2157 75.3309 41.3569 75.2002 41.5284 75.1242L42.0983 74.8735C42.2411 74.8133 42.3979 74.7943 42.5509 74.8184C42.7039 74.8427 42.8472 74.9091 42.9646 75.0102C43.1245 75.1511 43.3103 75.2595 43.5117 75.3294C43.7835 75.4341 44.0764 75.4721 44.366 75.4404C44.6555 75.4087 44.9332 75.3081 45.1759 75.147C45.5617 74.894 45.8411 74.508 45.9609 74.0625C46.0807 73.6169 46.0326 73.1429 45.8256 72.7305C45.6202 72.296 45.2515 71.96 44.7997 71.7958C44.47 71.6822 44.1158 71.6586 43.7739 71.7275C43.6202 71.7599 43.4606 71.7482 43.3134 71.6938C43.1661 71.6392 43.0373 71.5443 42.9417 71.4197L42.5314 70.884C42.4309 70.7403 42.377 70.5692 42.377 70.3938C42.377 70.2185 42.4309 70.0474 42.5314 69.9037C42.6255 69.7558 42.7612 69.6391 42.9214 69.5681C43.0816 69.4972 43.2592 69.475 43.4319 69.5047L45.609 69.9721C45.749 70.001 45.8791 70.0655 45.9869 70.1593C46.0948 70.2532 46.1766 70.3732 46.2245 70.5078C46.2732 70.6337 46.3384 70.7524 46.4183 70.8611C46.5522 71.0352 46.725 71.1755 46.9231 71.2706C47.1211 71.3656 47.3386 71.4127 47.5582 71.4083C47.6999 71.399 47.8418 71.4267 47.9696 71.4886C48.0974 71.5506 48.2071 71.6447 48.2877 71.7617L48.7323 72.4C48.8035 72.4994 48.8533 72.6126 48.8789 72.7321C48.9044 72.8518 48.9049 72.9754 48.8805 73.0953C48.8409 73.2664 48.851 73.4452 48.9096 73.6107C48.9682 73.7763 49.0727 73.9218 49.211 74.03C49.3129 74.0989 49.4242 74.1527 49.5415 74.1896C49.7065 74.2235 49.8776 74.2117 50.0362 74.1555C50.195 74.0992 50.3353 74.0006 50.442 73.8704C50.6002 73.6912 50.6818 73.4569 50.669 73.218C50.6562 72.9793 50.5501 72.755 50.3736 72.5938ZM38.7015 76.7998C38.6318 77.0762 38.4828 77.326 38.2727 77.5186C38.0626 77.7112 37.8007 77.838 37.5193 77.8835C37.238 77.9289 36.9495 77.891 36.6895 77.7743C36.4294 77.6575 36.2093 77.4673 36.0561 77.2269C35.903 76.9866 35.8238 76.7066 35.8279 76.4216C35.8321 76.1366 35.9196 75.8592 36.0797 75.6234C36.24 75.3876 36.4656 75.2039 36.729 75.095C36.9923 74.986 37.2818 74.9565 37.5617 75.0102C37.756 75.0491 37.9404 75.127 38.1039 75.239C38.2674 75.351 38.4066 75.4949 38.513 75.662C38.6195 75.8292 38.6911 76.0162 38.7234 76.2117C38.7558 76.4072 38.7484 76.6072 38.7015 76.7998Z" fill="white"/>
<path d="M41.5169 84.3571C42.6123 84.3571 43.5003 83.4691 43.5003 82.3737C43.5003 81.2783 42.6123 80.3904 41.5169 80.3904C40.4215 80.3904 39.5336 81.2783 39.5336 82.3737C39.5336 83.4691 40.4215 84.3571 41.5169 84.3571Z" fill="white"/>
<path d="M53.7818 75.4776C54.4868 75.4776 55.0584 74.906 55.0584 74.2009C55.0584 73.4959 54.4868 72.9243 53.7818 72.9243C53.0767 72.9243 52.5052 73.4959 52.5052 74.2009C52.5052 74.906 53.0767 75.4776 53.7818 75.4776Z" fill="white"/>
<path d="M32.7514 73.8589C33.1732 73.8589 33.5151 73.5171 33.5151 73.0952C33.5151 72.6735 33.1732 72.3315 32.7514 72.3315C32.3296 72.3315 31.9877 72.6735 31.9877 73.0952C31.9877 73.5171 32.3296 73.8589 32.7514 73.8589Z" fill="white"/>
<path d="M47.3187 76.5149C47.7405 76.5149 48.0824 76.173 48.0824 75.7512C48.0824 75.3295 47.7405 74.9875 47.3187 74.9875C46.8969 74.9875 46.5551 75.3295 46.5551 75.7512C46.5551 76.173 46.8969 76.5149 47.3187 76.5149Z" fill="white"/>
<path fill-rule="evenodd" clip-rule="evenodd" d="M55.9817 115.521C50.9987 119.824 44.6358 122.194 38.0518 122.2C32.3525 121.676 28.4428 120.114 26.2429 117.424C23.7011 114.313 23.7011 110.038 24.1113 105.672C26.9982 108.354 30.5979 110.145 34.4783 110.831C38.3585 111.517 42.3542 111.067 45.9851 109.536C46.5437 110.506 47.125 111.452 47.7748 112.341C49.6099 114.916 51.4907 116.171 53.474 116.171C54.3505 116.162 55.2115 115.939 55.9817 115.521Z" fill="white"/>
<path fill-rule="evenodd" clip-rule="evenodd" d="M17.5571 90.6604C17.5558 93.6802 18.2254 96.6625 19.5177 99.3918C18.1096 99.7619 16.6642 99.9723 15.209 100.019C14.6065 100.059 14.0018 99.9783 13.4305 99.7827C12.8591 99.587 12.3323 99.2798 11.8807 98.8788C11.4094 98.3292 11.0519 97.6916 10.8288 97.0029C10.6057 96.3142 10.5216 95.588 10.5813 94.8665V94.6841C10.5895 90.4511 11.5764 86.2772 13.4648 82.4887C15.3531 78.7002 18.0918 75.3995 21.4669 72.8445C19.9454 74.6774 19.1792 77.021 19.3239 79.3987C19.3848 80.1671 19.5067 80.9294 19.6886 81.6784C18.302 84.4705 17.5729 87.5429 17.5571 90.6604Z" fill="white"/>
<path fill-rule="evenodd" clip-rule="evenodd" d="M23.9631 98.1722L23.5528 98.2861C22.413 98.6053 21.3415 98.9245 20.2929 99.198C19.0702 96.6625 18.407 93.8938 18.348 91.0795C18.289 88.2653 18.8357 85.4712 19.9509 82.8867C20.4272 84.3952 20.9788 85.8788 21.6036 87.3321C21.7632 87.7538 21.9342 88.1528 22.0824 88.5518C22.8438 90.3504 23.4205 92.2218 23.8036 94.1371C23.999 95.4727 24.0524 96.8252 23.9631 98.1722Z" fill="white"/>
<path fill-rule="evenodd" clip-rule="evenodd" d="M23.4161 103.826C22.3623 102.657 21.4517 101.368 20.7031 99.9843C21.6607 99.7336 22.6524 99.4485 23.6668 99.1636L23.9061 99.0952C23.8036 100.36 23.6668 101.637 23.5186 102.868L23.4161 103.826Z" fill="white"/>
<path fill-rule="evenodd" clip-rule="evenodd" d="M32.4094 121.824C31.2743 121.586 30.1551 121.278 29.0582 120.901C24.3166 119.271 20.1066 116.384 16.8783 112.546C13.6501 108.71 11.5247 104.069 10.7294 99.1182C10.5877 98.2501 10.4925 97.375 10.4445 96.4966C10.4852 97.0148 10.5652 97.5293 10.6838 98.0355C10.8277 98.6432 11.1307 99.2019 11.5615 99.654C12.0527 100.099 12.6294 100.44 13.2564 100.656C13.8835 100.871 14.5479 100.957 15.209 100.908C16.8007 100.851 18.3806 100.61 19.9166 100.19C20.8226 101.906 21.9746 103.48 23.3362 104.864C22.9324 107.67 22.9631 110.523 23.4274 113.32C23.5944 114.103 23.8388 114.867 24.1569 115.6C24.7757 117.001 25.7078 118.242 26.8812 119.226C27.8673 120.042 28.9902 120.68 30.1981 121.106L30.4033 121.186C30.9732 121.425 31.7142 121.653 32.4094 121.824Z" fill="white"/>
</g>
</svg>
