<svg width="188" height="188" viewBox="0 0 188 188" fill="none" xmlns="http://www.w3.org/2000/svg">
<mask id="mask0_7_286" style="mask-type:luminance" maskUnits="userSpaceOnUse" x="17" y="16" width="154" height="156">
<path d="M170.456 16.7112H17.7556V171.441H170.456V16.7112Z" fill="white"/>
</mask>
<g mask="url(#mask0_7_286)">
<path fill-rule="evenodd" clip-rule="evenodd" d="M93.4691 138.951C79.265 138.959 65.6326 133.357 55.5394 123.363L56.0568 118.733C56.4812 114.965 56.9323 111.078 57.1711 107.39L59.4265 106.753L61.4431 106.195C67.5856 104.51 74.7098 102.799 81.2504 102.799C84.1192 102.74 86.9759 103.189 89.688 104.126C98.6696 107.456 105.329 119.21 109.747 126.998C110.437 128.205 111.075 129.412 111.804 130.646C112.534 131.88 113.369 133.432 114.165 134.839C107.606 137.565 100.572 138.962 93.4691 138.951Z" fill="white"/>
<path fill-rule="evenodd" clip-rule="evenodd" d="M91.1606 28.7707C91.1606 28.7707 91.0014 28.7707 90.7626 28.7707C85.9441 28.9664 81.1759 29.828 76.5937 31.3312L76.1293 31.4905C62.893 35.811 51.7222 44.8743 44.7667 56.9362C43.042 45.9247 47.221 36.5053 56.7863 30.3097C57.317 29.978 58.0069 29.5667 58.8427 29.1025C63.8443 26.3429 74.2189 21.62 90.882 19.8157C90.1916 21.217 89.8559 22.7665 89.9045 24.328C89.9531 25.8894 90.3844 27.4151 91.1606 28.7707Z" fill="white"/>
<path fill-rule="evenodd" clip-rule="evenodd" d="M164.022 117.101C161.913 134.719 148.898 147.15 146.218 149.008C142.57 151.514 139.399 152.882 136.295 152.882C128.441 152.882 122.471 144.204 117.508 135.714C126.562 131.415 134.304 124.778 139.934 116.487C145.564 108.195 148.878 98.5513 149.534 88.5508C160.732 93.6585 165.747 103.144 164.022 117.101Z" fill="white"/>
<path d="M162.536 78.4416C161.674 77.8844 161.435 76.0137 161.209 75.3901C160.439 72.1987 159.364 69.0888 157.998 66.1035C156.583 62.7946 154.289 59.9362 151.365 57.8382C149.534 56.5116 148.712 56.8432 147.903 58.8465C146.39 62.4286 144.639 65.8911 142.98 69.4599C142.596 70.2958 142.039 70.9326 141.044 70.508C140.049 70.0834 140.181 69.1813 140.486 68.3588C140.674 67.8575 140.886 67.366 141.123 66.8862C142.596 63.7154 144.015 60.5048 145.581 57.3739C146.284 55.9544 145.342 55.0655 143.392 54.7206C140.009 54.0439 139.239 54.7206 138.589 56.9095C137.766 59.5629 136.573 62.2162 135.538 64.79C135.18 65.7054 134.649 66.5412 133.534 66.1167C132.42 65.6922 132.58 64.6971 132.911 63.8083C133.795 61.544 134.68 59.2755 135.565 57.0024C136.6 54.3491 136.414 54.0837 133.641 54.2032C127.936 54.4287 122.231 54.8798 116.513 54.7337C112.873 54.6898 109.241 54.3705 105.648 53.7786L104.507 53.5664L103.366 53.3142L102.384 53.0887L102.066 52.9561C102.974 51.5013 103.575 49.8758 103.83 48.18H104.653H105.038H105.529H106.484H107.174H107.957C110.875 48.3072 113.8 48.1918 116.699 47.8351C117.004 47.8351 123.12 47.3442 124.845 47.2115C129.849 46.7075 134.891 46.6675 139.903 47.0922C146.537 47.8218 152.798 49.4404 157.335 54.9063C160.559 59.0092 162.452 63.9991 162.761 69.2079C163.265 72.2727 163.189 75.405 162.536 78.4416Z" fill="white"/>
<path d="M166.078 118.188C171.252 112.245 172.313 96.2323 166.688 89.3998C164.665 86.9143 162.2 84.823 159.418 83.2308C159.054 83.0739 158.725 82.8444 158.453 82.5562C158.18 82.268 157.969 81.9272 157.832 81.5548C157.695 81.1823 157.636 80.7859 157.658 80.3897C157.68 79.9936 157.782 79.6061 157.959 79.2508C158.483 77.7411 158.926 76.2043 159.285 74.6472C159.538 73.7185 159.604 72.7368 158.41 72.4317C157.216 72.1265 156.924 73.0022 156.672 73.8247C156.155 75.4963 155.65 77.1812 155.213 78.8792C154.934 79.9406 153.501 80.206 151.525 79.0518C149.548 77.8976 148.871 77.9772 150.595 73.5195C151.511 71.1712 152.507 68.8629 153.329 66.4882C153.714 65.3339 155.094 63.6491 153.182 62.9725C151.272 62.2959 151.206 64.445 150.715 65.6258C149.508 68.4251 148.327 71.2377 147.345 74.1165C146.721 75.9208 146.019 76.2923 144.215 75.4432C136.825 72.0336 131.054 68.8098 126.331 61.9642C126.065 61.5661 125.123 59.8547 124.195 59.8945C124.767 64.5999 126.767 69.0171 129.926 72.5511C134.781 78.3619 141.163 82.0235 147.81 85.3269C170.456 93.6983 166.29 115.231 166.078 118.188Z" fill="white"/>
<path d="M127.273 35.3642C126.901 35.0357 126.438 34.8276 125.946 34.7672C125.629 34.7317 125.324 34.6293 125.049 34.467C124.775 34.3046 124.537 34.0859 124.355 33.8253L123.027 31.9679C122.803 31.6571 122.662 31.2939 122.618 30.9129C122.574 30.532 122.628 30.1462 122.775 29.7922C123.029 29.2174 123.135 28.5886 123.085 27.9624C123.035 27.3363 122.829 26.7326 122.486 26.2059C122.144 25.6792 121.676 25.246 121.124 24.9457C120.572 24.6453 119.954 24.4872 119.326 24.4855C118.63 24.4709 117.944 24.6549 117.35 25.0162C117.049 25.1865 116.776 25.4013 116.54 25.653C116.275 25.9339 115.941 26.1405 115.57 26.2522C115.2 26.3639 114.807 26.3769 114.43 26.2898L108.46 25.0427C107.996 24.9474 107.573 24.7097 107.249 24.3626C106.925 24.0154 106.718 23.5761 106.657 23.1058C106.48 21.9238 106.025 20.8007 105.329 19.8288C104.746 19.013 104.002 18.325 103.143 17.8071C102.284 17.2891 101.329 16.9521 100.335 16.8167C99.341 16.6813 98.33 16.7503 97.3638 17.0196C96.3976 17.2889 95.4967 17.7528 94.7162 18.3828C94.4542 18.5873 94.2101 18.8136 93.9865 19.0594C92.8764 20.2509 92.1925 21.7768 92.0421 23.3983C91.8916 25.0199 92.2829 26.6456 93.1549 28.021C94.0269 29.3965 95.3302 30.444 96.861 30.9998C98.3918 31.5555 100.064 31.588 101.615 31.0923C102.068 30.9371 102.558 30.9251 103.019 31.058C103.479 31.1909 103.888 31.4623 104.189 31.8352L105.37 33.361C105.626 33.6987 105.781 34.102 105.819 34.5244C105.857 34.9468 105.774 35.3712 105.582 35.749C105.277 36.3745 105.105 37.0567 105.077 37.7522C105.065 38.1765 104.933 38.5887 104.699 38.9427C104.465 39.2965 104.136 39.578 103.751 39.7556L102.225 40.4322C101.758 40.6164 101.244 40.6436 100.761 40.5096C100.277 40.3755 99.8506 40.0875 99.5453 39.6893C98.7441 38.67 97.7585 37.8104 96.6398 37.1552C94.5856 35.9484 92.1818 35.4764 89.8238 35.817C87.4656 36.1576 85.2937 37.2905 83.665 39.0294C82.0362 40.7683 81.0477 43.0096 80.8619 45.385C80.6761 47.7603 81.3041 50.1281 82.6427 52.099C83.9814 54.07 85.9508 55.5268 88.2272 56.2299C90.5036 56.933 92.9516 56.8405 95.1685 55.9676C97.3854 55.0948 99.2392 53.4936 100.425 51.4272C101.611 49.3609 102.059 46.9524 101.695 44.5979C101.608 44.094 101.692 43.5756 101.932 43.1242C102.172 42.6728 102.555 42.3138 103.021 42.1038L104.586 41.4138C104.981 41.2509 105.414 41.2006 105.835 41.2685C106.257 41.3363 106.651 41.5198 106.975 41.7986C107.41 42.1731 107.908 42.4653 108.448 42.661C109.195 42.9484 109.999 43.0538 110.795 42.9684C111.591 42.8831 112.355 42.6094 113.025 42.1701C113.816 41.6571 114.45 40.9329 114.853 40.0792C115.255 39.2255 115.412 38.2763 115.305 37.3384C115.197 36.4006 114.83 35.5115 114.244 34.7712C113.659 34.0309 112.877 33.469 111.99 33.1486C111.089 32.8176 110.115 32.7486 109.177 32.9497C108.759 33.0359 108.326 33.0019 107.927 32.8516C107.528 32.7013 107.179 32.4409 106.922 32.1006L105.768 30.628C105.478 30.2504 105.313 29.793 105.295 29.3181C105.276 28.8432 105.403 28.3741 105.661 27.9747C105.91 27.5603 106.281 27.2333 106.722 27.0384C107.164 26.8436 107.655 26.7906 108.129 26.8868L114.099 28.1338C114.483 28.2187 114.839 28.3995 115.133 28.6594C115.428 28.9193 115.651 29.2497 115.784 29.6198C115.916 29.9682 116.098 30.2947 116.328 30.5882C116.702 31.0808 117.192 31.4739 117.755 31.733C118.317 31.992 118.934 32.1092 119.551 32.0741C119.937 32.0584 120.32 32.1401 120.666 32.3117C121.011 32.4833 121.308 32.7392 121.528 33.0558L122.749 34.8203C122.948 35.0869 123.087 35.3929 123.158 35.7178C123.229 36.0427 123.23 36.379 123.16 36.7041C123.052 37.1738 123.08 37.6646 123.243 38.1184C123.405 38.5722 123.695 38.97 124.076 39.2647C124.346 39.4694 124.651 39.6224 124.978 39.7158C125.422 39.8261 125.888 39.8154 126.327 39.6848C126.765 39.5541 127.16 39.3082 127.472 38.9728C127.7 38.7249 127.877 38.4338 127.99 38.1167C128.104 37.7996 128.153 37.4629 128.135 37.1265C128.116 36.7901 128.03 36.4608 127.882 36.1581C127.735 35.8554 127.527 35.5855 127.273 35.3642ZM95.1142 46.8931C94.9368 47.6597 94.536 48.3567 93.9626 48.8956C93.3892 49.4347 92.6689 49.7915 91.8926 49.9213C91.1165 50.051 90.3193 49.9477 89.6017 49.6244C88.8842 49.3012 88.2786 48.7725 87.8616 48.1051C87.4444 47.4378 87.2346 46.6618 87.2584 45.8752C87.2822 45.0885 87.5387 44.3267 87.9955 43.6858C88.4522 43.0449 89.0887 42.5538 89.8244 42.2746C90.5602 41.9954 91.3623 41.9406 92.1292 42.1171C92.6389 42.2344 93.1206 42.451 93.5465 42.7546C93.9725 43.0581 94.3344 43.4427 94.6117 43.8862C94.8889 44.3298 95.076 44.8237 95.1623 45.3397C95.2484 45.8555 95.2321 46.3834 95.1142 46.8931Z" fill="white"/>
<path d="M103.008 67.6426C106.019 67.6426 108.46 65.2013 108.46 62.1899C108.46 59.1785 106.019 56.7373 103.008 56.7373C99.9965 56.7373 97.5553 59.1785 97.5553 62.1899C97.5553 65.2013 99.9965 67.6426 103.008 67.6426Z" fill="white"/>
<path d="M140.05 40.5358C140.481 38.6502 139.302 36.772 137.417 36.3408C135.53 35.9097 133.652 37.0888 133.221 38.9744C132.79 40.8601 133.969 42.7383 135.855 43.1694C137.74 43.6007 139.618 42.4216 140.05 40.5358Z" fill="white"/>
<path d="M78.97 38.7982C80.1204 38.7837 81.0411 37.8395 81.0266 36.6892C81.0121 35.539 80.068 34.6183 78.9177 34.6327C77.7675 34.6471 76.8467 35.5913 76.8612 36.7417C76.8756 37.8919 77.8198 38.8126 78.97 38.7982Z" fill="white"/>
<path d="M118.928 46.0972C120.079 46.0972 121.011 45.1646 121.011 44.0142C121.011 42.8639 120.079 41.9314 118.928 41.9314C117.778 41.9314 116.845 42.8639 116.845 44.0142C116.845 45.1646 117.778 46.0972 118.928 46.0972Z" fill="white"/>
<path fill-rule="evenodd" clip-rule="evenodd" d="M142.689 153.133C129.015 164.945 111.551 171.448 93.4824 171.455C77.7215 170.036 67.1213 165.737 61.0982 158.347C54.1464 149.804 54.1331 138.076 55.2741 126.096C63.1874 133.458 73.0599 138.377 83.7033 140.26C94.3467 142.143 105.307 140.909 115.267 136.71C116.805 139.362 118.424 141.936 120.175 144.39C125.216 151.462 130.364 154.898 135.883 154.898C138.26 154.866 140.596 154.261 142.689 153.133Z" fill="white"/>
<path fill-rule="evenodd" clip-rule="evenodd" d="M37.2842 84.9291C37.265 93.1837 39.0775 101.34 42.5909 108.809C38.731 109.846 34.7646 110.433 30.7702 110.561C26.6841 110.561 23.7123 109.579 21.6559 107.588C19.321 105.32 18.1667 101.725 18.0872 96.5773C18.0872 96.4049 18.0872 96.2323 18.0872 96.0599C18.0907 84.4232 20.7945 72.946 25.9857 62.5315C31.1768 52.1169 38.7139 43.0489 48.0038 36.041C43.7727 41.0492 41.6135 47.4841 41.9673 54.0307C42.1378 56.1493 42.4704 58.2515 42.9624 60.3192C39.2172 67.982 37.2749 76.4 37.2842 84.9291Z" fill="white"/>
<path fill-rule="evenodd" clip-rule="evenodd" d="M54.8362 105.545L53.7351 105.85C50.6705 106.727 47.6722 107.588 44.78 108.332C41.4299 101.372 39.6121 93.7749 39.4497 86.0528C39.2872 78.3308 40.7837 70.6638 43.838 63.5696C45.0851 67.7884 46.7567 71.9276 48.2957 75.7617C48.76 76.9026 49.2111 78.0171 49.6224 79.1182C51.6972 84.0637 53.2661 89.2065 54.3056 94.4679C54.8841 98.1302 55.0621 101.845 54.8362 105.545Z" fill="white"/>
<path fill-rule="evenodd" clip-rule="evenodd" d="M53.3371 121.054C50.4439 117.853 47.9451 114.317 45.8945 110.521C48.5478 109.817 51.2012 109.035 54.0269 108.239L54.677 108.067C54.425 111.529 54.0269 115.031 53.6423 118.428C53.5361 119.29 53.4299 120.179 53.3371 121.054Z" fill="white"/>
<path fill-rule="evenodd" clip-rule="evenodd" d="M78.0133 170.42C74.906 169.78 71.8437 168.938 68.846 167.9C55.8289 163.431 44.2691 155.513 35.3998 144.989C26.5305 134.466 20.6844 121.731 18.4853 108.146C18.1138 105.785 17.8529 103.383 17.7025 100.942C17.8235 102.358 18.0452 103.763 18.3658 105.148C18.7485 106.822 19.5838 108.359 20.7804 109.592C23.049 111.887 26.3658 113.028 30.7703 113.028C35.1395 112.881 39.4764 112.222 43.6922 111.064C46.166 115.762 49.2927 120.086 52.9789 123.907C52.1696 131.668 51.6522 139.748 53.231 147.084C53.684 149.249 54.3507 151.365 55.221 153.399C56.9177 157.25 59.4833 160.656 62.7167 163.349C65.4156 165.589 68.4872 167.335 71.7913 168.51L72.375 168.722C74.2224 169.389 76.1046 169.956 78.0133 170.42Z" fill="white"/>
</g>
</svg>
